<svg width="405.9999999999999" height="200" xmlns="http://www.w3.org/2000/svg">
 <g>
  <title>background</title>
  <rect x="-1" y="-1" width="408" height="202" id="canvas_background" fill="none"/>
 </g>

 <g>
  <title>Layer 1</title>
  <path id="XMLID_223_" d="m54.038,25.003l281.878,0c9.438,0 17.089,7.652 17.089,17.089l0,0c0,9.438 -7.651,17.089 -17.089,17.089l-32.12,0c-8.218,0 -14.882,6.663 -14.882,14.882l0,0c0,8.218 6.664,14.881 14.882,14.881l86.216,0c9.085,0 16.449,7.366 16.449,16.453l0,0c0,9.086 -7.364,16.449 -16.449,16.449l-43.198,0l0,0c0,16.465 -13.346,29.811 -29.813,29.811l0,0c-7.27,0 -13.161,5.896 -13.161,13.166l0,35.1l-189.252,0l0,-2.891c0,-17.518 -14.108,-31.768 -31.624,-31.939l-65.404,-0.648c-10.003,-0.1 -18.06,-8.238 -18.06,-18.24l0,0c0,-10.074 8.167,-18.24 18.241,-18.24l65.283,0l0,0c0,-16.609 13.465,-30.075 30.073,-30.075l2.55,0c10.11,0 18.306,-8.195 18.306,-18.306l0,0c0,-10.11 -8.195,-18.306 -18.306,-18.306l-61.609,0c-10.016,0 -18.135,-8.12 -18.135,-18.137l0,0c0,-10.016 8.119,-18.138 18.135,-18.138z" opacity="0.1"/>
  <path opacity="0" id="XMLID_1041_" fill="#FFFFFF" d="m134.268,185.822l-35.7,-11.252c-1.102,-0.348 -1.713,-1.521 -1.365,-2.623l11.252,-35.701c0.348,-1.1 1.521,-1.713 2.623,-1.365l35.701,11.252c1.101,0.348 1.713,1.521 1.365,2.623l-11.253,35.701c-0.347,1.101 -1.522,1.712 -2.623,1.365z"/>
  <rect opacity="0" id="XMLID_1040_" x="107.015041" y="144.005964" transform="matrix(0.9537,0.3006,-0.3006,0.9537,53.4755,-29.5244) " fill="#c4baa2" width="31.093" height="29.278"/>
  <path id="XMLID_918_" fill="#a29472" d="m106.224,148.224l-2.812,-0.887l3.501,-11.104c0.322,-1.023 1.023,-1.859 1.976,-2.355c0.95,-0.496 2.038,-0.594 3.062,-0.27l6.785,2.451l-1.002,2.771l-6.728,-2.43c-0.215,-0.066 -0.503,-0.039 -0.756,0.09c-0.254,0.133 -0.441,0.355 -0.526,0.629l-3.5,11.105z"/>
  <path id="XMLID_211_" fill="#FFFFFF" d="m137.545,177.353l-0.399,0c-1.759,-6.059 -7.339,-10.49 -13.965,-10.49c-2.892,0 -5.58,0.854 -7.846,2.309c-1.471,-9.547 -9.695,-16.863 -19.652,-16.863c-8.938,0 -16.5,5.891 -19.018,14c-1.135,-0.305 -2.321,-0.482 -3.553,-0.482c-6.82,0 -12.459,4.998 -13.492,11.527l-2.227,0c-5.615,0 -10.211,4.594 -10.211,10.211l0,0.754c0,5.615 4.596,10.209 10.211,10.209l80.151,0c5.615,0 10.21,-4.594 10.21,-10.209l0,-0.754c0.001,-5.618 -4.594,-10.212 -10.209,-10.212z"/>
  <path id="XMLID_913_" fill="#a29472" d="m137.545,200.001l-80.151,0c-6.443,0 -11.685,-5.244 -11.685,-11.684l0,-0.754c0,-6.443 5.241,-11.686 11.685,-11.686l1.02,0c1.842,-7.566 9.236,-12.727 17.289,-11.295c3.146,-8.277 11.014,-13.748 19.98,-13.748c10.614,0 19.492,7.617 21.109,18.111l-2.913,0.449c-1.395,-9.045 -9.048,-15.613 -18.196,-15.613c-8.126,0 -15.202,5.209 -17.609,12.963l-0.422,1.355l-1.369,-0.369c-7.268,-1.961 -14.102,2.867 -15.206,9.852l-0.196,1.244l-3.486,0c-4.817,0 -8.736,3.918 -8.736,8.736l0,0.754c0,4.816 3.919,8.736 8.736,8.736l80.151,0l0,2.949l-0.001,0z"/>
  <path id="XMLID_912_" fill="#a29472" d="m107.413,168.361c-2.801,-4.314 -7.538,-6.891 -12.671,-6.891c-2.715,0 -5.378,0.727 -7.702,2.104l-1.502,-2.537c2.777,-1.646 5.961,-2.516 9.204,-2.516c6.136,0 11.796,3.078 15.143,8.236l-2.472,1.604z"/>
  <path id="XMLID_911_" fill="#a29472" d="m81.929,172.853l-2.949,0c0,-3.094 -2.518,-5.613 -5.612,-5.613l0,-2.947c4.721,-0.001 8.561,3.839 8.561,8.56z"/>
  <path fill="#FFFFFF" d="m96.075,127.083c0.261,1.504 -1.295,3.027 -3.472,3.404c-2.18,0.375 -4.153,-0.537 -4.413,-2.043c-0.262,-1.5 1.294,-3.025 3.472,-3.402c2.177,-0.376 4.153,0.538 4.413,2.041z" id="svg_1"/>
  <path id="XMLID_908_" fill="#a29472" d="m91.614,132.046c-2.49,0 -4.527,-1.336 -4.877,-3.348c-0.209,-1.201 0.244,-2.451 1.242,-3.43c0.867,-0.85 2.086,-1.445 3.432,-1.68c3.027,-0.514 5.711,0.902 6.115,3.242l0.002,0c0.207,1.201 -0.246,2.451 -1.243,3.43c-0.867,0.848 -2.086,1.445 -3.432,1.678c-0.42,0.073 -0.834,0.108 -1.239,0.108zm1.016,-5.615c-0.227,0 -0.467,0.02 -0.718,0.064c-0.749,0.131 -1.431,0.449 -1.869,0.879c-0.14,0.139 -0.458,0.49 -0.401,0.818c0.089,0.508 1.221,1.1 2.711,0.84c0.75,-0.129 1.432,-0.449 1.869,-0.879c0.14,-0.135 0.458,-0.49 0.4,-0.82l0,0c-0.072,-0.419 -0.864,-0.902 -1.992,-0.902z"/>
  <path fill="#FFFFFF" d="m107.254,127.083c0.26,1.504 -1.296,3.027 -3.474,3.404c-2.178,0.375 -4.154,-0.537 -4.414,-2.043c-0.259,-1.5 1.295,-3.025 3.475,-3.402c2.177,-0.376 4.152,0.538 4.413,2.041z" id="svg_2"/>
  <path id="XMLID_905_" fill="#a29472" d="m102.792,132.046c-2.49,0 -4.529,-1.334 -4.879,-3.348c-0.402,-2.344 1.652,-4.588 4.677,-5.109s5.711,0.902 6.116,3.242l0,0c0.207,1.201 -0.245,2.451 -1.243,3.43c-0.868,0.848 -2.087,1.445 -3.433,1.678c-0.422,0.072 -0.836,0.107 -1.238,0.107zm1.017,-5.615c-0.227,0 -0.466,0.02 -0.718,0.064c-1.497,0.258 -2.359,1.193 -2.272,1.699c0.087,0.504 1.208,1.1 2.711,0.838c0.751,-0.129 1.432,-0.449 1.87,-0.879c0.141,-0.137 0.459,-0.492 0.401,-0.82l0,0c-0.072,-0.419 -0.864,-0.902 -1.992,-0.902z"/>
  <polygon id="XMLID_904_" fill="#a29472" points="108.755,127.41 105.808,127.41 105.808,114.781 97.577,114.781 97.577,127.41     94.629,127.41 94.629,111.832 108.755,111.832   "/>
  <path id="XMLID_903_" fill="#a29472" d="m192.303,20.121l-8.399,0c-0.813,0 -1.474,-0.661 -1.474,-1.475s0.66,-1.474 1.474,-1.474l8.399,0c0.813,0 1.475,0.66 1.475,1.474s-0.662,1.475 -1.475,1.475z"/>
  <path id="XMLID_902_" fill="#a29472" d="m188.103,24.32c-0.813,0 -1.474,-0.66 -1.474,-1.475l0,-8.398c0,-0.813 0.66,-1.474 1.474,-1.474s1.475,0.66 1.475,1.474l0,8.398c-0.001,0.815 -0.662,1.475 -1.475,1.475z"/>
  <path id="XMLID_901_" fill="#a29472" d="m68.65991,42.284l-8.399,0c-0.813,0 -1.474,-0.66 -1.474,-1.475c0,-0.813 0.66,-1.474 1.474,-1.474l8.399,0c0.813,0 1.474,0.66 1.474,1.474c0,0.815 -0.66,1.475 -1.474,1.475z"/>
  <path id="XMLID_900_" fill="#a29472" d="m64.46091,46.485c-0.813,0 -1.474,-0.66 -1.474,-1.475l0,-8.4c0,-0.813 0.66,-1.474 1.474,-1.474s1.474,0.66 1.474,1.474l0,8.4c0,0.815 -0.66,1.475 -1.474,1.475z"/>
  <path id="XMLID_899_" fill="#a29472" d="m389.163,130.15991l-8.402,0c-0.813,0 -1.474,-0.66 -1.474,-1.473c0,-0.814 0.66,-1.475 1.474,-1.475l8.402,0c0.813,0 1.474,0.66 1.474,1.475c0,0.813 -0.66,1.473 -1.474,1.473z"/>
  <path id="XMLID_898_" fill="#a29472" d="m384.962,133.98982c-0.813,0 -1.474,-0.66 -1.474,-1.473l0,-8.4c0,-0.814 0.66,-1.475 1.474,-1.475s1.474,0.66 1.474,1.475l0,8.4c0,0.813 -0.661,1.473 -1.474,1.473z"/>
  <path id="XMLID_897_" fill="#a29472" d="m349.94,75.26c-0.379,0 -0.755,-0.146 -1.043,-0.434c-0.575,-0.576 -0.575,-1.509 0,-2.084l5.94,-5.938c0.576,-0.576 1.509,-0.576 2.084,0c0.576,0.576 0.576,1.509 0,2.084l-5.939,5.938c-0.288,0.288 -0.664,0.434 -1.042,0.434z"/>
  <path id="XMLID_896_" fill="#a29472" d="m355.88,75.26c-0.376,0 -0.754,-0.146 -1.042,-0.434l-5.94,-5.938c-0.575,-0.575 -0.575,-1.508 0,-2.084c0.576,-0.576 1.509,-0.576 2.085,0l5.939,5.938c0.576,0.575 0.576,1.508 0,2.084c-0.288,0.288 -0.666,0.434 -1.042,0.434z"/>
  <path id="XMLID_895_" fill="#a29472" d="m59.25909,122.44291c-0.377,0 -0.754,-0.145 -1.041,-0.432c-0.576,-0.576 -0.576,-1.508 0,-2.084l5.939,-5.939c0.576,-0.576 1.508,-0.576 2.084,0c0.576,0.574 0.576,1.508 0,2.084l-5.939,5.939c-0.288,0.287 -0.665,0.432 -1.043,0.432z"/>
  <path id="XMLID_894_" fill="#a29472" d="m64.83,122.812c-0.377,0 -0.754,-0.145 -1.042,-0.432l-5.939,-5.939c-0.576,-0.576 -0.576,-1.51 0,-2.084c0.575,-0.576 1.508,-0.576 2.084,0l5.939,5.939c0.576,0.576 0.576,1.508 0,2.084c-0.287,0.287 -0.664,0.432 -1.042,0.432z"/>
  <rect id="XMLID_893_" x="168.083" fill="#a29472" width="90.85" height="2.947"/>
  <rect id="XMLID_892_" x="133.621909" y="17.338" fill="#a29472" width="34.188" height="2.948"/>
  <rect id="XMLID_891_" x="309.665" y="69.341" fill="#a29472" width="34.189" height="2.948"/>
  <rect id="XMLID_890_" x="171.127" y="17.338" fill="#a29472" width="7.017" height="2.948"/>
  <path id="XMLID_176_" fill="#a29472" d="m359.811,145.56382c0,1.385 -1.125,2.506 -2.511,2.506s-2.506,-1.121 -2.506,-2.506c0,-1.387 1.12,-2.512 2.506,-2.512s2.511,1.126 2.511,2.512z"/>
  <circle id="XMLID_174_" fill="#a29472" cx="270.211" cy="18.646" r="2.508"/>
  <circle id="XMLID_173_" fill="#a29472" cx="33.205" cy="91.973" r="2.508"/>
  <circle id="XMLID_172_" fill="#a29472" cx="305.965" cy="52.31" r="1.574"/>
  <circle id="XMLID_170_" fill="#a29472" cx="106.912909" cy="12.614" r="1.574"/>
  <path opacity="0" fill="#c4baa2" d="m280.973,198.525l0,-150.932c0,-4.018 -3.229,-7.274 -7.212,-7.274l-106.595,0c-3.983,0 -7.213,3.257 -7.213,7.274l0,150.934l121.02,-0.002z" id="svg_3"/>
  <path fill="#c4baa2" d="m159.953,63.951827l0,-17.937c0,-3.347 2.715,-6.064 6.065,-6.064l108.89,0c3.347,0 6.064,2.718 6.064,6.064l0,17.937l-121.019,0z" id="svg_4"/>
  <path id="XMLID_889_" fill="#a29472" d="m161.428,112.052l-2.948,0l0,-65.669c0,-4.156 3.382,-7.538 7.539,-7.538l16.069,0l0,2.947l-16.069,0c-2.532,0 -4.591,2.062 -4.591,4.591l0,65.669z"/>
  <path id="XMLID_888_" fill="#a29472" d="m282.447,73.73l-2.948,0l0,-27.347c0,-2.529 -2.062,-4.591 -4.591,-4.591l-71.796,0l0,-2.947l71.796,0c4.157,0 7.539,3.382 7.539,7.538l0,27.347z"/>
  <rect id="XMLID_887_" x="187.957" y="38.845" fill="#a29472" width="8.312" height="2.947"/>
  <rect id="XMLID_886_" x="159.953" y="63.175" fill="#a29472" width="121.02" height="2.947"/>
  <rect id="XMLID_885_" x="168.547" y="47.454" fill="#a29472" width="3.073" height="2.948"/>
  <rect id="XMLID_884_" x="176.22" y="47.454" fill="#a29472" width="3.075" height="2.948"/>
  <rect id="XMLID_883_" x="183.894" y="47.454" fill="#a29472" width="3.074" height="2.948"/>
  <rect id="XMLID_1037_" x="198.455" y="53.611" fill="#FFFFFF" width="64.311" height="4.398"/>
  <rect x="180.357" y="53.611" fill="#FFFFFF" width="14.562" height="4.398" id="svg_5"/>
  <rect x="168.547" y="53.611" fill="#FFFFFF" width="9.21" height="4.398" id="svg_6"/>
  <rect x="171.021" y="80.461" fill="#c4baa2" width="34.204" height="46.037" id="svg_7"/>
  <rect x="213.509" y="80.461" fill="#c4baa2" width="56.701" height="68.033" id="svg_8"/>
  <rect x="213.509" y="159.664" fill="#c4baa2" width="56.701" height="11.17" id="svg_9"/>
  <path fill="#c4baa2" d="m186.011345,140.371l-11.962,0c-0.935,0 -1.693,-0.758 -1.693,-1.691l0,0c0,-0.938 0.759,-1.693 1.693,-1.693l11.962,0c0.935,0 1.692,0.756 1.692,1.693l0,0c0.001,0.933 -0.757,1.691 -1.692,1.691z" id="svg_10"/>
  <path fill="#a29472" d="m202.251,140.371l-11.962,0c-0.935,0 -1.693,-0.758 -1.693,-1.691l0,0c0,-0.938 0.759,-1.693 1.693,-1.693l11.962,0c0.935,0 1.692,0.756 1.692,1.693l0,0c0,0.933 -0.757,1.691 -1.692,1.691z" id="svg_11"/>
  <path id="XMLID_864_" fill="#a29472" d="m276.98,198.525l0,0l3.992,0l0,-122.102l-22.309,0c-4.405,0 -8.066,3.235 -8.732,7.458c-5.117,0.67 -9.078,5.056 -9.078,10.351l0,14.389c0,1.607 0.521,3.088 1.392,4.307c-0.858,0.863 -1.392,2.049 -1.392,3.357l0,3.188c0,2.629 2.138,4.762 4.764,4.762c0.457,0 0.887,-0.084 1.303,-0.203c1.203,10.213 8.239,18.645 17.68,21.896l0,0.352c-4.015,0.918 -7.846,2.408 -11.333,4.477l0.759,1.281c-1.871,1.109 -3.61,2.371 -5.195,3.762l-0.983,-1.117c-2.794,2.451 -5.093,5.25 -6.836,8.32l1.316,0.746c-1.07,1.893 -1.919,3.885 -2.514,5.969l-1.455,-0.416c-0.702,2.455 -1.056,4.992 -1.056,7.537l0,21.688l39.677,0l0,-0.002z" opacity="0.3"/>
  <path id="XMLID_146_" fill="#FFFFFF" d="m308.571,119.472c0,1.814 -1.478,3.289 -3.294,3.289l0,0c-1.815,0 -3.289,-1.475 -3.289,-3.289l0,-3.188c0,-1.814 1.474,-3.289 3.289,-3.289l0,0c1.816,0 3.294,1.475 3.294,3.289l0,3.188z"/>
  <path id="XMLID_879_" fill="#a29472" d="m305.277,124.234c-2.625,0 -4.763,-2.133 -4.763,-4.762l0,-3.188c0,-2.625 2.138,-4.764 4.763,-4.764c2.63,0 4.768,2.139 4.768,4.764l0,3.188c0,2.629 -2.138,4.762 -4.768,4.762zm0,-9.764c-0.999,0 -1.815,0.812 -1.815,1.814l0,3.188c0,1 0.816,1.814 1.815,1.814c1.002,0 1.82,-0.814 1.82,-1.814l0,-3.188c0.001,-1.001 -0.818,-1.814 -1.82,-1.814z"/>
  <path id="XMLID_143_" fill="#FFFFFF" d="m252.841,119.472c0,1.814 -1.478,3.289 -3.293,3.289l0,0c-1.814,0 -3.29,-1.475 -3.29,-3.289l0,-3.188c0,-1.814 1.476,-3.289 3.29,-3.289l0,0c1.815,0 3.293,1.475 3.293,3.289l0,3.188z"/>
  <path id="XMLID_876_" fill="#a29472" d="m249.548,124.234c-2.626,0 -4.764,-2.133 -4.764,-4.762l0,-3.188c0,-2.625 2.138,-4.764 4.764,-4.764c2.629,0 4.767,2.139 4.767,4.764l0,3.188c-0.001,2.629 -2.138,4.762 -4.767,4.762zm0,-9.764c-1,0 -1.815,0.812 -1.815,1.814l0,3.188c0,1 0.815,1.814 1.815,1.814c1.003,0 1.819,-0.814 1.819,-1.814l0,-3.188c0,-1.001 -0.816,-1.814 -1.819,-1.814z"/>
  <path id="XMLID_141_" fill="#c4baa2" d="m312.981,198.527l0,-21.689c0,-16.58 -15.812,-30.148 -35.137,-30.148l0,0c-19.327,0 -35.138,13.568 -35.138,30.148l0,21.689l70.275,0z"/>
  <path id="XMLID_875_" fill="#a29472" d="m244.182,198.527l-2.948,0l0,-21.689c0,-2.545 0.354,-5.082 1.056,-7.537l2.835,0.809c-0.626,2.195 -0.942,4.457 -0.942,6.729l0,21.688l-0.001,0z"/>
  <path id="XMLID_874_" fill="#a29472" d="m247.506,164.455l-2.564,-1.453c1.742,-3.07 4.042,-5.869 6.836,-8.32l1.944,2.215c-2.547,2.233 -4.637,4.776 -6.216,7.558z"/>
  <path id="XMLID_873_" fill="#a29472" d="m299.678,155.064c-6.1,-4.449 -13.854,-6.9 -21.833,-6.9c-6.867,0 -13.488,1.773 -19.143,5.127l-1.505,-2.535c6.111,-3.625 13.251,-5.539 20.647,-5.539c8.598,0 16.97,2.652 23.569,7.465l-1.735,2.382z"/>
  <rect id="XMLID_872_" x="261.12" y="174.005818" fill="#a29472" width="2.948" height="23.783"/>
  <rect id="XMLID_871_" x="291.888" y="174.005818" fill="#a29472" width="2.947" height="23.783"/>
  <path fill="#FFFFFF" d="m276.578,158.88l0,0c-3.632,0 -6.573,-2.943 -6.573,-6.574l0,-14.816c0,-3.113 2.523,-5.641 5.641,-5.641l1.865,0c3.112,0 5.639,2.527 5.639,5.641l0,14.816c-0.001,3.631 -2.943,6.574 -6.572,6.574z" id="svg_12"/>
  <path id="XMLID_868_" fill="#a29472" d="m276.578,160.355c-4.438,0 -8.048,-3.611 -8.048,-8.049l0,-14.816c0,-3.92 3.192,-7.111 7.115,-7.111l1.865,0c3.923,0 7.112,3.191 7.112,7.111l0,14.816c0.001,4.438 -3.607,8.049 -8.044,8.049zm-0.932,-27.029c-2.3,0 -4.167,1.867 -4.167,4.164l0,14.816c0,2.812 2.286,5.1 5.1,5.1c2.81,0 5.097,-2.287 5.097,-5.1l0,-14.816c0,-2.297 -1.867,-4.164 -4.164,-4.164l-1.866,0z"/>
  <path id="XMLID_118_" fill="#FFFFFF" d="m277.119,145.912l0,0c-13.745,0 -24.994,-11.246 -24.994,-24.994l0,-16.941c0,-13.747 11.249,-13.435 24.994,-13.435l0,0c13.745,0 24.994,-0.312 24.994,13.435l0,16.941c0,13.748 -11.249,24.994 -24.994,24.994z"/>
  <path id="XMLID_865_" fill="#a29472" d="m277.119,147.386c-14.594,0 -26.468,-11.875 -26.468,-26.469l0,-16.939c0,-6.77 2.615,-11.069 7.993,-13.14c4.614,-1.777 10.897,-1.77 17.584,-1.771l1.781,0c6.702,-0.004 12.97,-0.008 17.584,1.771c5.377,2.071 7.993,6.37 7.993,13.14l0,16.939c0.001,14.594 -11.873,26.469 -26.467,26.469zm-1.743,-55.371c-6.07,0 -11.753,0.065 -15.672,1.573c-4.223,1.628 -6.105,4.831 -6.105,10.39l0,16.939c0,12.971 10.55,23.521 23.521,23.521c12.97,0 23.52,-10.551 23.52,-23.521l0,-16.939c0,-5.559 -1.883,-8.762 -6.104,-10.39c-4.104,-1.577 -10.118,-1.579 -16.521,-1.573l-1.789,0c-0.286,0 -0.568,0 -0.85,0z"/>
  <path id="XMLID_114_" fill="#c4baa2" d="m252.244,114.605l0,0c-3.305,0 -5.986,-2.678 -5.986,-5.984l0,-14.39c0,-4.954 4.016,-8.967 8.969,-8.967l0,0l0,0c0,-4.068 3.299,-7.368 7.368,-7.368l36.35,0c4.921,0 8.909,3.988 8.909,8.909l0,21.598c0,3.201 -2.696,5.738 -5.891,5.541l0,0l0,-14.264c0,0 -4.104,6.707 -17.029,6.691c-15.618,-0.02 -25.771,-7.731 -25.771,-7.731s-0.96,2.124 -3.052,3.973c-1.921,1.699 -3.867,1.1 -3.867,1.1l0,10.892z"/>
  <path id="XMLID_861_" fill="#c4baa2" d="m252.244,114.605l0,-10.893c0,0 1.946,0.6 3.867,-1.1c2.092,-1.85 3.052,-3.973 3.052,-3.973s20.531,10.768 32.745,6.793c-13.282,-5.712 -30.496,-9.181 -33.355,-26.328c-2.002,1.319 -3.326,3.582 -3.326,6.159c-4.953,0 -8.969,4.013 -8.969,8.967l0,14.389c0,3.308 2.681,5.986 5.986,5.986z" opacity="0.46"/>
  <path id="XMLID_863_" fill="#a29472" d="m253.72,116.08l-1.474,0c-4.115,0 -7.462,-3.346 -7.462,-7.459l0,-14.39c0,-5.295 3.961,-9.681 9.078,-10.351c0.666,-4.223 4.327,-7.458 8.732,-7.458l36.35,0c5.727,0 10.383,4.658 10.383,10.383l0,21.598c0,1.932 -0.806,3.797 -2.211,5.117c-1.404,1.324 -3.312,2.018 -5.243,1.896l-1.384,-0.084l0,-15.652l2.948,0l0,12.644c0.612,-0.176 1.178,-0.496 1.66,-0.947c0.827,-0.779 1.282,-1.836 1.282,-2.973l0,-21.598c0,-4.1 -3.336,-7.435 -7.436,-7.435l-36.35,0c-3.252,0 -5.895,2.645 -5.895,5.894l0,1.474l-1.474,0c-4.132,0 -7.494,3.361 -7.494,7.493l0,14.389c0,1.973 1.271,3.652 3.038,4.264l0.001,-11.17l1.908,0.592c0.023,0.002 1.217,0.299 2.457,-0.795c1.804,-1.599 2.675,-3.458 2.683,-3.478l2.687,1.213c-0.044,0.1 -1.114,2.433 -3.416,4.472c-1.134,1.002 -2.347,1.42 -3.37,1.537l0,10.824l0.002,0z"/>
  <path id="XMLID_862_" fill="#a29472" d="m284.971,107.10682c-0.014,0 -0.025,0 -0.038,0c-15.92,-0.02 -29.575,-9.985 -30.149,-10.409l1.754,-2.37c0.131,0.098 13.468,9.812 28.398,9.83c0.01,0 0.021,0 0.033,0c11.968,0 17.473,-8.129 17.526,-8.213l2.46,1.623c-0.257,0.391 -6.45,9.539 -19.984,9.539z"/>
  <path id="XMLID_756_" fill="#c4baa2" d="m179.053173,193.564827l0,-72.523c0,-3.348 -2.722,-6.068 -6.068,-6.068l-12.663,0l0,83.186l16.583,0c1.303,-1.116 2.148,-2.749 2.148,-4.595z" opacity="0.3"/>
  <path opacity="0" fill="#FFFFFF" d="m169.374,198.527l-43.532,0c-2.158,0 -3.906,-1.75 -3.906,-3.906l0,-73.898c0,-2.156 1.748,-3.908 3.906,-3.908l43.532,0c2.157,0 3.905,1.752 3.905,3.908l0,73.898c0,2.156 -1.748,3.906 -3.905,3.906z" id="svg_13"/>
  <path id="XMLID_860_" fill="#a29472" d="m168.686,200.001l-42.157,0c-3.345,0 -6.066,-2.721 -6.066,-6.068l0,-72.523c0,-3.348 2.722,-6.068 6.066,-6.068l2.815,0l0,2.947l-2.815,0c-1.72,0 -3.119,1.4 -3.119,3.121l0,72.523c0,1.719 1.399,3.121 3.119,3.121l42.157,0c1.721,0 3.12,-1.402 3.12,-3.121l0,-72.523c0,-1.721 -1.399,-3.121 -3.12,-3.121l-29.031,0l0,-2.947l29.031,0c3.347,0 6.068,2.721 6.068,6.068l0,72.523c0,3.348 -2.722,6.068 -6.068,6.068z"/>
  <rect id="XMLID_859_" x="132.02" y="115.341" fill="#a29472" width="5.701" height="2.947"/>
  <rect id="XMLID_858_" x="140.009" y="121.498" fill="#a29472" width="15.197" height="2.947"/>
  <path id="XMLID_855_" fill="#a29472" d="m147.607,195.783c-2.172,0 -3.938,-1.768 -3.938,-3.938c0,-2.174 1.767,-3.939 3.938,-3.939s3.939,1.766 3.939,3.939c0.001,2.17 -1.767,3.938 -3.939,3.938zm0,-4.928c-0.546,0 -0.99,0.443 -0.99,0.99c0,0.545 0.444,0.99 0.99,0.99c0.547,0 0.991,-0.445 0.991,-0.99c0.001,-0.547 -0.444,-0.99 -0.991,-0.99z"/>
  <rect opacity="0" id="XMLID_1036_" x="127.07" y="128.237909" fill="#c4baa2" width="41.074" height="57.881"/>
  <path fill="#a29472" d="m149.697,101.769l-2.954,-15.986c1.688,-3.775 2.648,-7.948 2.648,-12.353c0,-16.741 -13.571,-30.313 -30.312,-30.313c-16.742,0 -30.314,13.572 -30.314,30.313s13.572,30.315 30.314,30.315c5.911,0 11.409,-1.721 16.073,-4.647l14.545,2.671z" id="svg_14"/>
  <ellipse fill="#FFFFFF" cx="119.231" cy="73.431" rx="23.402" ry="22.86" id="svg_15"/>
  <path fill="#F1F2F2" d="m122.52,65.545l0.648,0c0.51,-1.489 1.131,-3.568 1.13,-4.821c0,-0.576 0.074,-1.493 0.014,-2.342c-0.007,0.208 -0.014,0.399 -0.014,0.561c0.002,2.12 -1.778,6.602 -1.778,6.602z" id="svg_16"/>
  <path id="XMLID_851_" fill="#a29472" d="m136.563,77.429l-3.687,0l0,-2.949l3.687,0c0.37,0 0.684,-0.314 0.684,-0.684c0,-0.372 -0.313,-0.683 -0.684,-0.683l-3.687,0l0,-2.948l3.687,0c2.002,0 3.632,1.628 3.632,3.631c0,2.003 -1.63,3.633 -3.632,3.633z"/>
  <path id="XMLID_91_" fill="#a29472" d="m134.299,81.743l-5.206,0l0,-2.948l5.206,0c0.37,0 0.684,-0.312 0.684,-0.684c0,-0.37 -0.313,-0.683 -0.684,-0.683l-5.206,0l0,-2.948l5.206,0c2.002,0 3.632,1.628 3.632,3.631c0,2.004 -1.63,3.632 -3.632,3.632z"/>
  <path id="XMLID_90_" fill="#a29472" d="m132.034,86.058l-12.27,0c-0.946,0 -1.869,-0.388 -2.529,-1.063l-2.147,-2.195c-0.049,-0.05 -0.119,-0.079 -0.19,-0.079l-0.517,0l0,-2.948l0.517,0c0.858,0 1.696,0.352 2.297,0.966l2.149,2.195c0.111,0.115 0.261,0.177 0.421,0.177l12.27,0c0.371,0 0.684,-0.311 0.684,-0.684c0,-0.368 -0.312,-0.683 -0.684,-0.683l-2.033,0l0,-2.948l2.033,0c2.003,0 3.632,1.63 3.632,3.631c-0.001,2.003 -1.63,3.631 -3.633,3.631z"/>
  <path id="XMLID_88_" fill="#a29472" d="m135.711,73.114l-6.618,0l0,-2.948l6.618,0c0.37,0 0.684,-0.314 0.684,-0.685c0,-0.371 -0.313,-0.684 -0.684,-0.684l-15.581,0l0.8,-2.018c0.649,-1.633 1.677,-4.721 1.676,-6.057c0,-0.203 0.009,-0.443 0.019,-0.706c0.014,-0.39 0.045,-1.236 -0.023,-1.823c-0.547,1.604 -1.709,4.819 -2.639,6.092c-0.621,0.848 -3.005,3.938 -3.005,3.938l-0.442,0.574l-2.996,0l0,-2.947l1.547,0c0.711,-0.923 2.072,-2.696 2.517,-3.303c0.687,-0.94 1.904,-4.272 2.51,-6.149l0.168,-0.353c0.409,-0.626 1.188,-0.944 2.317,-0.944c0.009,0 0.019,0 0.028,0c1.146,0.006 1.935,0.33 2.341,0.967c0.729,1.141 0.669,2.825 0.623,4.058c-0.008,0.223 -0.016,0.426 -0.016,0.599c0.001,1.411 -0.617,3.549 -1.149,5.126l11.307,0c2.003,0 3.631,1.63 3.631,3.632c-0.002,1.999 -1.63,3.631 -3.633,3.631z"/>
  <path id="XMLID_847_" fill="#a29472" d="m112.138,84.813l-10.21,0l0,-2.947l10.21,0c0.176,0 0.318,-0.143 0.318,-0.319l0,-14.774c0,-0.177 -0.143,-0.319 -0.318,-0.319l-2.634,0l0,-2.947l2.634,0c1.801,0 3.266,1.466 3.266,3.267l0,14.773c-0.001,1.801 -1.466,3.266 -3.266,3.266z"/>
  <rect id="XMLID_846_" x="60.527" y="81.866" fill="#a29472" width="39.442" height="2.947"/>
  <rect id="XMLID_82_" x="81.796" y="75.745" fill="#a29472" width="23.22" height="2.948"/>
  <rect id="XMLID_80_" x="74.297" y="75.745" fill="#a29472" width="5.534" height="2.948"/>
  <rect id="XMLID_78_" x="54.448" y="69.625" fill="#a29472" width="51.219" height="2.948"/>
  <rect id="XMLID_842_" x="54.64" y="63.507" fill="#a29472" width="54.018" height="2.947"/>
  <path fill="#FFFFFF" d="m355.926,198.527l-57.717,0c-0.76,0 -1.376,-0.617 -1.376,-1.377l0,-38.1c0,-0.76 0.616,-1.375 1.376,-1.375l57.717,0c0.76,0 1.374,0.615 1.374,1.375l0,38.1c0,0.76 -0.614,1.377 -1.374,1.377z" id="svg_17"/>
  <path id="XMLID_839_" fill="#a29472" d="m355.926,200.001l-57.717,0c-1.571,0 -2.85,-1.277 -2.85,-2.852l0,-38.1c0,-1.57 1.278,-2.85 2.85,-2.85l57.717,0c1.57,0 2.849,1.279 2.849,2.85l0,38.1c-0.001,1.575 -1.279,2.852 -2.849,2.852zm-0.1,-40.951l-57.617,0.098l0.099,38.002l57.519,-0.096l0,-38.004l-0.001,0z"/>
  <path fill="#a29472" d="m332.354,174.611l-9.617,5.549c-0.606,0.352 -1.365,-0.086 -1.365,-0.785l0,-11.105c0,-0.699 0.759,-1.137 1.365,-0.787l9.617,5.553c0.607,0.35 0.607,1.223 0,1.575z" id="svg_18"/>
  <rect id="XMLID_838_" x="303.579" y="189.58" fill="#a29472" width="46.361" height="2.949"/>
  <rect id="XMLID_837_" x="312.471" y="187.369" fill="#a29472" width="2.948" height="7.375"/>
  <rect id="XMLID_836_" x="30.513" y="197.054" fill="#a29472" width="5.383" height="2.947"/>
  <rect id="XMLID_835_" x="364.505" y="197.054" fill="#a29472" width="11.89" height="2.947"/>
  <rect id="XMLID_834_" x="39.479" y="197.054" fill="#a29472" width="321.955" height="2.947"/>
 </g>
</svg>