<?xml version="1.0" encoding="utf-8"?>
<!-- Generator: Adobe Illustrator 16.0.0, SVG Export Plug-In . SVG Version: 6.00 Build 0)  -->
<!DOCTYPE svg PUBLIC "-//W3C//DTD SVG 1.1//EN" "http://www.w3.org/Graphics/SVG/1.1/DTD/svg11.dtd">
<svg version="1.1" id="Layer_1" xmlns="http://www.w3.org/2000/svg" xmlns:xlink="http://www.w3.org/1999/xlink" x="0px" y="0px"
	 width="138.339px" height="45px" viewBox="0 0 138.339 45" enable-background="new 0 0 138.339 45" xml:space="preserve">
<g>
	<polygon fill="#FFFFFF" points="18.723,44.745 18.723,38.444 22.496,38.444 22.496,39.313 19.821,39.313 19.821,40.894 
		22.496,40.894 22.496,41.794 19.821,41.794 19.821,43.829 22.496,43.829 22.496,44.745 	"/>
	<path fill="#FFFFFF" d="M24.315,43.484l0.88-0.378c0.082,0.28,0.232,0.494,0.458,0.646c0.22,0.143,0.502,0.22,0.85,0.22
		c0.328,0,0.583-0.087,0.777-0.253c0.193-0.169,0.287-0.396,0.287-0.683c0-0.369-0.327-0.7-0.987-0.99
		c-0.092-0.04-0.164-0.074-0.211-0.094c-0.746-0.341-1.242-0.646-1.492-0.919c-0.249-0.278-0.374-0.609-0.374-1.007
		c0-0.515,0.19-0.929,0.564-1.248c0.375-0.318,0.864-0.477,1.474-0.477c0.498,0,0.912,0.088,1.251,0.268
		c0.336,0.18,0.566,0.439,0.7,0.775l-0.863,0.411c-0.137-0.199-0.282-0.344-0.445-0.435c-0.162-0.092-0.349-0.138-0.557-0.138
		c-0.295,0-0.53,0.073-0.705,0.217c-0.172,0.143-0.26,0.335-0.26,0.576c0,0.379,0.381,0.733,1.147,1.06
		c0.058,0.022,0.105,0.047,0.137,0.061c0.67,0.284,1.13,0.566,1.377,0.84c0.251,0.274,0.376,0.616,0.376,1.03
		c0,0.594-0.204,1.066-0.605,1.422c-0.403,0.35-0.95,0.526-1.637,0.526c-0.576,0-1.046-0.123-1.413-0.371
		C24.669,44.299,24.431,43.944,24.315,43.484"/>
	<polygon fill="#FFFFFF" points="32.943,39.313 32.943,44.745 31.845,44.745 31.845,39.313 30.049,39.313 30.049,38.444 
		34.733,38.444 34.733,39.313 	"/>
	<path fill="#FFFFFF" d="M40.177,44.745l-0.769-1.62h-2.679l-0.788,1.62h-1.152l3.274-6.549l3.272,6.549H40.177z M37.133,42.272
		h1.886l-0.692-1.438c-0.042-0.092-0.083-0.199-0.127-0.318c-0.042-0.12-0.083-0.251-0.128-0.398
		c-0.036,0.142-0.076,0.267-0.118,0.388c-0.042,0.117-0.085,0.227-0.126,0.329L37.133,42.272z"/>
	<polygon fill="#FFFFFF" points="44.15,39.313 44.15,44.745 43.052,44.745 43.052,39.313 41.25,39.313 41.25,38.444 45.937,38.444 
		45.937,39.313 	"/>
	<polygon fill="#FFFFFF" points="47.743,44.745 47.743,38.444 51.518,38.444 51.518,39.313 48.844,39.313 48.844,40.894 
		51.518,40.894 51.518,41.794 48.844,41.794 48.844,43.829 51.518,43.829 51.518,44.745 	"/>
	<path fill="#FFFFFF" d="M58.89,41.927v2.818h-1.029v-6.301h1.535c0.448,0,0.795,0.023,1.047,0.081
		c0.247,0.051,0.458,0.143,0.634,0.272c0.21,0.149,0.37,0.348,0.488,0.589c0.112,0.24,0.168,0.504,0.168,0.794
		c0,0.504-0.13,0.899-0.394,1.185c-0.262,0.285-0.648,0.453-1.159,0.514l2.331,2.865h-1.242l-2.253-2.818L58.89,41.927L58.89,41.927
		z M58.96,41.13h0.199c0.581,0,0.969-0.066,1.162-0.188c0.19-0.13,0.285-0.352,0.285-0.67c0-0.349-0.101-0.596-0.307-0.738
		c-0.203-0.141-0.585-0.212-1.139-0.212H58.96V41.13z"/>
	<polygon fill="#FFFFFF" points="64.184,44.745 64.184,38.444 67.957,38.444 67.957,39.313 65.282,39.313 65.282,40.894 
		67.957,40.894 67.957,41.794 65.282,41.794 65.282,43.829 67.957,43.829 67.957,44.745 	"/>
	<path fill="#FFFFFF" d="M69.686,43.484l0.875-0.378c0.085,0.28,0.235,0.494,0.46,0.646c0.219,0.143,0.501,0.22,0.85,0.22
		c0.327,0,0.583-0.087,0.774-0.253c0.196-0.169,0.289-0.396,0.289-0.683c0-0.369-0.327-0.7-0.986-0.99
		c-0.092-0.04-0.163-0.074-0.215-0.094c-0.744-0.341-1.24-0.646-1.491-0.919c-0.247-0.278-0.37-0.609-0.37-1.007
		c0-0.515,0.184-0.929,0.562-1.248c0.377-0.318,0.863-0.477,1.472-0.477c0.5,0,0.917,0.088,1.254,0.268
		c0.334,0.18,0.564,0.439,0.698,0.775l-0.863,0.411c-0.136-0.199-0.285-0.344-0.443-0.435c-0.162-0.092-0.348-0.138-0.558-0.138
		c-0.297,0-0.532,0.073-0.707,0.217c-0.173,0.143-0.26,0.335-0.26,0.576c0,0.379,0.383,0.733,1.146,1.06
		c0.057,0.022,0.104,0.047,0.14,0.061c0.666,0.284,1.127,0.566,1.374,0.84c0.251,0.274,0.376,0.616,0.376,1.03
		c0,0.594-0.201,1.066-0.607,1.422c-0.403,0.35-0.949,0.526-1.637,0.526c-0.577,0-1.045-0.123-1.412-0.371
		C70.036,44.299,69.799,43.944,69.686,43.484"/>
	<rect x="76.2" y="38.45" fill="#FFFFFF" width="1.096" height="6.302"/>
	<path fill="#FFFFFF" d="M79.791,44.745v-6.301h1.484c0.962,0,1.639,0.044,2.032,0.134c0.39,0.091,0.738,0.243,1.033,0.456
		c0.389,0.277,0.688,0.633,0.889,1.071c0.202,0.435,0.303,0.935,0.303,1.492c0,0.562-0.101,1.057-0.303,1.487
		c-0.2,0.432-0.5,0.79-0.889,1.072c-0.295,0.211-0.633,0.363-1.011,0.454c-0.376,0.089-0.963,0.134-1.763,0.134h-0.292H79.791z
		 M80.89,43.823h0.922c0.508,0,0.89-0.037,1.146-0.094c0.251-0.066,0.473-0.173,0.66-0.322c0.256-0.205,0.447-0.458,0.573-0.761
		c0.132-0.301,0.193-0.652,0.193-1.055c0-0.404-0.061-0.757-0.193-1.059c-0.126-0.305-0.317-0.558-0.573-0.758
		c-0.19-0.153-0.419-0.257-0.686-0.32c-0.267-0.067-0.684-0.095-1.249-0.095h-0.399H80.89V43.823z"/>
	<polygon fill="#FFFFFF" points="87.602,44.745 87.602,38.444 91.373,38.444 91.373,39.313 88.698,39.313 88.698,40.894 
		91.373,40.894 91.373,41.794 88.698,41.794 88.698,43.829 91.373,43.829 91.373,44.745 	"/>
	<path fill="#FFFFFF" d="M93.76,44.745v-6.549l4.294,3.851c0.119,0.108,0.235,0.226,0.355,0.352c0.124,0.119,0.248,0.258,0.38,0.418
		v-4.372h1.017v6.549l-4.384-3.923c-0.116-0.109-0.23-0.22-0.338-0.335c-0.112-0.117-0.214-0.24-0.314-0.372v4.382H93.76z"/>
	<path fill="#FFFFFF" d="M107.472,39.977c-0.314-0.249-0.643-0.434-0.987-0.556c-0.351-0.124-0.714-0.185-1.095-0.185
		c-0.738,0-1.34,0.22-1.806,0.664c-0.464,0.44-0.694,1.011-0.694,1.717c0,0.679,0.228,1.239,0.677,1.684
		c0.453,0.441,1.019,0.663,1.706,0.663c0.405,0,0.783-0.069,1.145-0.199c0.362-0.133,0.71-0.332,1.044-0.598v1.157
		c-0.294,0.198-0.618,0.345-0.966,0.442c-0.35,0.098-0.728,0.146-1.133,0.146c-0.519,0-0.995-0.077-1.436-0.237
		c-0.438-0.155-0.823-0.391-1.158-0.696c-0.329-0.301-0.58-0.656-0.757-1.064c-0.177-0.41-0.267-0.845-0.267-1.31
		c0-0.462,0.09-0.897,0.267-1.302s0.43-0.763,0.77-1.068c0.336-0.309,0.719-0.545,1.15-0.703c0.44-0.161,0.905-0.24,1.41-0.24
		c0.397,0,0.777,0.055,1.139,0.163c0.362,0.108,0.71,0.267,1.047,0.487L107.472,39.977z"/>
	<polygon fill="#FFFFFF" points="109.743,44.745 109.743,38.444 113.517,38.444 113.517,39.313 110.838,39.313 110.838,40.894 
		113.517,40.894 113.517,41.794 110.838,41.794 110.838,43.829 113.517,43.829 113.517,44.745 	"/>
	<path fill="#FFFFFF" d="M115.24,43.484l0.88-0.378c0.079,0.28,0.232,0.494,0.457,0.646c0.218,0.143,0.505,0.22,0.848,0.22
		c0.327,0,0.585-0.087,0.782-0.253c0.19-0.169,0.287-0.396,0.287-0.683c0-0.369-0.332-0.7-0.99-0.99
		c-0.09-0.04-0.162-0.074-0.214-0.094c-0.744-0.341-1.242-0.646-1.488-0.919c-0.25-0.278-0.371-0.609-0.371-1.007
		c0-0.515,0.186-0.929,0.559-1.248c0.376-0.318,0.867-0.477,1.474-0.477c0.5,0,0.914,0.088,1.253,0.268
		c0.335,0.18,0.568,0.439,0.697,0.775l-0.859,0.411c-0.139-0.199-0.285-0.344-0.446-0.435c-0.161-0.092-0.348-0.138-0.556-0.138
		c-0.294,0-0.529,0.073-0.704,0.217c-0.173,0.143-0.263,0.335-0.263,0.576c0,0.379,0.385,0.733,1.147,1.06
		c0.059,0.022,0.103,0.047,0.138,0.061c0.666,0.284,1.128,0.566,1.375,0.84c0.252,0.274,0.374,0.616,0.374,1.03
		c0,0.594-0.199,1.066-0.602,1.422c-0.405,0.35-0.949,0.526-1.636,0.526c-0.578,0-1.047-0.123-1.415-0.371
		C115.595,44.299,115.353,43.944,115.24,43.484"/>
	<path fill="#FFFFFF" d="M7.726,22.991c-0.138,0.492-0.224,0.854-0.263,1.1c-0.046,0.242-0.067,0.463-0.067,0.658
		c0,0.477,0.157,0.812,0.471,1.004c0.305,0.195,0.839,0.292,1.592,0.292h3.5c2.246,0,4.031-0.48,5.351-1.438
		c1.319-0.965,2.547-2.688,3.691-5.175h0.711l-2.547,7.93H0.159v-0.529c1.128,0,1.953-0.21,2.469-0.631
		c0.518-0.42,0.958-1.294,1.323-2.621l5.23-19.373c0.123-0.45,0.209-0.832,0.267-1.151C9.504,2.74,9.531,2.488,9.531,2.289
		c0-0.585-0.201-1.007-0.603-1.268C8.53,0.757,7.817,0.593,6.794,0.518V0.007h9.905v0.511c-1.148,0.024-1.977,0.246-2.49,0.667
		c-0.519,0.421-0.958,1.288-1.323,2.604L7.726,22.991z"/>
	<path fill="#FFFFFF" d="M41.185,11.39l0.603-2.211l2.789-0.457l-3.919,14.15c-0.022,0.081-0.054,0.195-0.092,0.336
		c-0.207,0.783-0.307,1.397-0.307,1.833c0,0.267,0.046,0.478,0.145,0.631c0.095,0.148,0.232,0.226,0.401,0.226
		c0.375,0,0.791-0.206,1.246-0.622c0.458-0.411,1.037-1.114,1.745-2.101l0.528,0.328c-1.058,1.56-1.992,2.67-2.803,3.328
		c-0.805,0.658-1.616,0.985-2.429,0.985c-0.562,0-0.979-0.151-1.26-0.465c-0.28-0.31-0.417-0.782-0.417-1.415
		c0-0.244,0.042-0.617,0.134-1.115c0.092-0.5,0.222-1.062,0.393-1.681l0.403-1.502c-1.036,1.991-2.189,3.514-3.467,4.579
		c-1.278,1.066-2.594,1.599-3.956,1.599c-1.131,0-2.021-0.408-2.665-1.225c-0.641-0.814-0.964-1.942-0.964-3.384
		c0-1.396,0.262-2.866,0.793-4.409c0.527-1.541,1.287-3.044,2.269-4.501c1.178-1.732,2.464-3.095,3.857-4.088
		c1.392-0.993,2.696-1.489,3.91-1.489c0.875,0,1.568,0.217,2.077,0.659C40.711,9.817,41.035,10.492,41.185,11.39 M32.704,25.644
		c0.683,0,1.425-0.321,2.234-0.958c0.81-0.644,1.575-1.521,2.291-2.643c0.971-1.534,1.761-3.223,2.37-5.07
		c0.603-1.846,0.91-3.406,0.91-4.685c0-0.892-0.178-1.576-0.539-2.059c-0.358-0.48-0.867-0.719-1.521-0.719
		c-0.645,0-1.309,0.226-1.996,0.684c-0.688,0.457-1.388,1.142-2.107,2.057c-1.238,1.521-2.226,3.21-2.963,5.052
		c-0.734,1.844-1.106,3.514-1.106,5.016c0,1.062,0.215,1.879,0.633,2.46C31.331,25.354,31.928,25.644,32.704,25.644"/>
	<path fill="#FFFFFF" d="M60.033,4.961c-0.506-1.397-1.103-2.352-1.784-2.86c-0.686-0.507-1.576-0.765-2.675-0.765V0.527h6.595
		c0.266,0.754,0.749,2.072,1.446,3.948c0.294,0.809,0.641,1.762,1.042,2.862c0.405,1.103,0.874,2.397,1.41,3.888
		c0.535,1.489,1.152,3.19,1.85,5.099c0.697,1.902,1.475,4.054,2.33,6.444c0.966-2.579,1.818-4.868,2.557-6.871
		c0.734-2,1.384-3.764,1.949-5.296c0.562-1.534,1.051-2.839,1.461-3.928c0.416-1.087,0.759-2.006,1.028-2.76
		c0.672-1.747,1.085-2.875,1.243-3.386h2.734c-0.509,1.185-1.216,2.97-2.131,5.36c-0.403,1.021-0.864,2.216-1.385,3.585
		c-0.523,1.374-1.127,2.952-1.809,4.732c-0.682,1.792-1.439,3.805-2.272,6.047c-0.831,2.243-1.754,4.747-2.772,7.509h-2.41
		L60.033,4.961z"/>
	<path fill="#FFFFFF" d="M87.846,8.175c0-0.638-0.07-1.143-0.206-1.514c-0.131-0.377-0.324-0.65-0.574-0.832
		c-0.251-0.186-0.555-0.305-0.916-0.36c-0.368-0.055-0.78-0.085-1.257-0.085V4.702h5.976v3.473v19.187h-3.022L87.846,8.175
		L87.846,8.175z"/>
	<path fill="#FFFFFF" d="M100.101,8.174c0-0.636-0.07-1.142-0.203-1.513c-0.144-0.376-0.332-0.65-0.581-0.832
		c-0.248-0.185-0.557-0.306-0.931-0.361c-0.375-0.054-0.789-0.084-1.239-0.084V4.701h7.941c1.399,0,2.803,0.121,4.194,0.357
		c1.39,0.239,2.632,0.75,3.728,1.53c1.101,0.785,1.989,1.923,2.669,3.42c0.676,1.496,1.015,3.521,1.015,6.058
		c0,1.679-0.165,3.123-0.495,4.337c-0.326,1.212-0.77,2.239-1.337,3.082c-0.564,0.838-1.228,1.51-1.984,2.024
		c-0.759,0.507-1.565,0.903-2.427,1.17c-0.86,0.278-1.749,0.456-2.662,0.548c-0.918,0.087-1.822,0.135-2.7,0.135h-4.987V8.174
		L100.101,8.174z M103.12,23.177c0,0.617,0.023,1.108,0.068,1.482c0.042,0.374,0.135,0.664,0.271,0.87
		c0.136,0.202,0.334,0.336,0.593,0.404c0.261,0.07,0.608,0.104,1.037,0.104c2.92,0,5.023-0.806,6.314-2.418
		c1.288-1.607,1.932-4.125,1.932-7.551c0-1.565-0.123-2.967-0.371-4.204c-0.25-1.234-0.692-2.289-1.324-3.162
		c-0.635-0.873-1.485-1.537-2.548-1.992c-1.063-0.454-2.397-0.677-4.003-0.677c-0.429,0-0.776,0.02-1.037,0.064
		c-0.259,0.045-0.457,0.167-0.593,0.359c-0.138,0.191-0.23,0.479-0.271,0.866c-0.045,0.388-0.068,0.909-0.068,1.561V23.177
		L103.12,23.177z"/>
	<path fill="#FFFFFF" d="M129.561,4.362c0.991,2.607,1.868,4.941,2.629,6.992c0.755,2.052,1.431,3.862,2.017,5.428
		c0.591,1.562,1.098,2.909,1.526,4.032c0.434,1.121,0.795,2.079,1.084,2.871c0.703,1.843,1.157,3.052,1.362,3.642h-3.189
		c-0.295-0.748-0.545-1.395-0.749-1.938c-0.203-0.545-0.425-1.146-0.659-1.802c-0.238-0.659-0.463-1.258-0.665-1.804
		s-0.441-1.193-0.711-1.942h-8.523c-1.783,4.946-2.678,7.452-2.678,7.52h-2.07c0.137-0.318,0.294-0.721,0.474-1.207
		c0.184-0.489,0.447-1.199,0.802-2.125c0.35-0.933,0.827-2.176,1.425-3.726c0.597-1.556,1.33-3.476,2.187-5.768
		c0.862-2.293,1.901-5.038,3.124-8.236c0-0.046,0.009-0.079,0.038-0.101c0.11-0.384,0-0.676-0.343-0.867
		c-0.339-0.193-0.949-0.292-1.835-0.292V4.362H129.561z M124.164,18.517h7.563l-3.763-10.377L124.164,18.517z"/>
</g>
</svg>
